<?xml version="1.0" encoding="UTF-8"?>
<svg  viewBox="0 0 48 48" version="1.1" xmlns="http://www.w3.org/2000/svg" xmlns:xlink="http://www.w3.org/1999/xlink">
    <!-- Generator: Sketch 49.2 (51160) - http://www.bohemiancoding.com/sketch -->
    <title>Slack</title>
    <desc>Created with Sketch.</desc>
    <defs></defs>
    <g id="Page-1" stroke="none" stroke-width="1" fill="none" fill-rule="evenodd">
        <g id="Social-Icons---Isolated" transform="translate(-52.000000, -727.000000)" fill="#7f8a34">
            <path d="M97.9906725,744.402355 C93.0436637,727.908326 85.8961509,724.060819 69.4021215,729.009328 C52.9095921,733.956336 49.0605853,741.103849 54.0090941,757.597878 C58.9576029,774.090408 66.1051156,777.939415 82.597645,772.990906 C99.0916744,768.042397 102.939181,760.894884 97.9906725,744.402355 M89.6491576,755.109374 L86.5396521,756.150376 L87.616654,759.369382 C88.0531548,760.671384 87.3511535,762.081386 86.0476512,762.517887 C85.7641507,762.613887 85.4761502,762.654387 85.1941497,762.646887 C84.1771479,762.619887 83.2396462,761.968886 82.8991456,760.948884 L81.8206437,757.731379 L75.4081322,759.879383 L76.4851341,763.096888 C76.9216349,764.400391 76.2196337,765.810393 74.9161313,766.246894 C74.6326308,766.341394 74.3446303,766.381894 74.0626298,766.374394 C73.045628,766.348894 72.1081263,765.696393 71.7676257,764.677891 L70.6891238,761.458885 L67.5796183,762.501387 C67.2961178,762.595887 67.0066172,762.636387 66.7246167,762.628887 C65.7091149,762.603387 64.7716133,761.950886 64.4296127,760.930884 C63.9931119,759.628882 64.6951131,758.21888 65.9986155,757.782379 L69.109621,756.739877 L67.0411173,750.567366 L63.9316118,751.609868 C63.6481113,751.704368 63.3601107,751.744868 63.0766102,751.737368 C62.0611084,751.711868 61.1236068,751.059367 60.7816062,750.039365 C60.3451054,748.737363 61.0486066,747.32736 62.3506089,746.890859 L65.4616145,745.848358 L64.3831126,742.630852 C63.9466118,741.327349 64.648613,739.917347 65.9521154,739.482346 C67.2556177,739.045845 68.6656202,739.747847 69.102121,741.051349 L70.1791229,744.268855 L76.5931343,742.120851 L75.5146324,738.903345 C75.0781316,737.599843 75.7816329,736.18984 77.0836352,735.75334 C78.3871375,735.316839 79.79714,736.02034 80.2336408,737.322342 L81.3106427,740.541348 L84.4216483,739.498846 C85.7251506,739.062345 87.1336531,739.765847 87.5701539,741.067849 C88.0066547,742.371351 87.3046534,743.781354 86.0011511,744.217855 L82.8916456,745.258856 L84.9586493,751.432867 L88.0696548,750.390366 C89.3716571,749.955365 90.7816596,750.657366 91.2181604,751.959368 C91.6546612,753.262871 90.9526599,754.672873 89.6491576,755.109374 Z M71.7596757,748.987413 L73.8266794,755.159924 L80.2406908,753.01192 L78.1736872,746.839409 L71.7596757,748.987413 Z" id="Slack"></path>
        </g>
    </g>
</svg>
